<?xml version="1.0" encoding="utf-8"?>
<!-- Generator: Adobe Illustrator 21.0.0, SVG Export Plug-In . SVG Version: 6.00 Build 0)  -->
<svg version="1.1" id="Layer_1" xmlns="http://www.w3.org/2000/svg" xmlns:xlink="http://www.w3.org/1999/xlink" x="0px" y="0px"
	 viewBox="0 0 1280 1024" style="enable-background:new 0 0 1280 1024;" xml:space="preserve">
<style type="text/css">
	.st0{fill:#FEFEFE;}
	.st1{fill:#FAFCFB;}
	.st2{fill:#97C51C;}
	.st3{fill:#FAF032;}
	.st4{fill:#B1E1FC;}
	.st5{fill:#B2E1FC;}
	.st6{fill:#0B82CC;}
	.st7{fill:#D8070B;}
	.st8{fill:#FDFDFE;}
	.st9{fill:#FDFEFE;}
	.st10{fill:#FAFBFD;}
	.st11{fill:#A4C532;}
	.st12{fill:#F4EF47;}
	.st13{fill:#A6C436;}
	.st14{fill:#0B83CC;}
	.st15{fill:#0C83CC;}
	.st16{fill:#84B5DF;}
</style>
<g>
	<g>
		<path class="st0" d="M640.4,873.3c-211.7,0-423.5,0-635.2,0.1c-3.4,0-4.4-0.6-4.4-4.3c0.1-237.7,0.1-475.3,0-713
			c0-4,1.1-4.4,4.7-4.4c423.6,0.1,847.3,0.1,1270.9,0c3.7,0,4.6,0.6,4.6,4.5c-0.1,237.5-0.1,475,0,712.5c0,4.2-1.2,4.7-4.9,4.7
			C1064.2,873.3,852.3,873.3,640.4,873.3z"/>
		<path class="st1" d="M1137.5,273.7c8.8-0.3,17.5-2.2,26.4-2c11.8,0.2,16.6,4.1,15.7,15.6c-2.6,30.8-1.6,61.6-1.7,92.4
			c-0.2,84.9-0.1,169.7-0.1,254.6c-1.5,1.4-3.4,1.2-5.2,1.4c-9.8-1.3-19.6-0.8-29.5-0.8c-244.2,0-488.3,0-732.5,0
			c-14.8,0-29.6-1.1-44.4-0.8c-13.1,0.3-26.2,0.6-39.2,0.6c-50,0.4-99.9-0.3-149.9,0.3c-26.2,0.3-52.4,0.6-78.6,0.7
			c-2.5,0-5,0.1-7.5-0.2c-1.8-0.3-3.5-0.8-4.8-2.1c0-65.3,0-130.5-0.1-195.8c3.3-2.5,5.2,0.1,7,2.1c7.7,8.7,13.9,18.4,18.7,28.9
			c8.8,19.5,14,39.9,16.8,61c0.6,4.3,2.2,7.8,6.5,9.5c32.9,8,63.1,21.7,91,40.8c1.6,1.1,3.1,2.7,5.4,2.4
			c13.9-8.6,27.7-17.3,42.6-24.3c14.7-6.9,29.9-12.6,46-15.1c3.7-0.6,7.3-1.2,6.9-6.3c4.9-7.7,5.9-16.7,8.3-25.1
			c7.1-24.2,16.1-47.5,30.4-68.5c1.7-2.5,2.2-4.7-0.2-7.1c-0.9-0.9-1.6-1.9-1.8-3.2c3.2-5.8,0.8-10.4-2.5-15.3
			c-12.3-18.1-20.9-37.7-23.7-59.7c-1.1-8.9-3.1-17.8-7.6-25.8c-1-1.8-1.8-3.6-3.6-4.7c-11.3-2.9-22.6-6.1-33.5-10.4
			c-19.8-7.9-38.4-17.9-56.1-29.8c-1.8-1.2-3.3-3-5.7-2.8c-11.9,7-23.6,14.5-36.1,20.6c-18.2,9-37.1,16.2-56.9,20.6
			c-0.9,0.2-1.8,0.4-2.6,0.9c-3.7,2.6-4.5,6.6-5.2,10.6c-3,17.6-7.8,34.7-14.7,51.2c-5.8,13.8-13.3,26.5-22.8,38.1
			c-1.1,1.3-2.2,2.6-3.8,3.4c-1,0.3-2,0.2-2.8-0.5c0-50.3,0-100.5-0.1-150.8c0-3.4,0.5-4.9,4.5-4.9c93.8,0.1,187.6,0.1,281.4,0.1
			c3.7,22.2,16,41,24.2,61.4c9.1,22.6,19.2,44.7,29.4,66.8c6,13,6.3,26.1,0.7,39.5c-13.3,32.2-25.1,65-38.2,97.2
			c-4.5,11-9.5,21.7-14,32.7c-4.4,10.7-2.8,13.1,8.7,13.2c0.3,0,0.6,0,0.9,0c12.7,0,16.3-2.5,19.5-14.9c5.1-20.2,11.9-39.8,19.8-59
			c6.1-15,13.2-29.7,19.9-44.4c1.4-3,3.4-5.3,7.1-5.2c3.6,0.1,5.6,2.5,6.9,5.5c3.4,7.9,6.2,16,9.3,24c10.9,28.6,22.8,56.8,35.1,84.8
			c4.4,10.1,8.8,12.4,19.5,10c3.4-0.7,6.6-1.8,9.8-3.2c2.7-1.2,3.3-3.2,1.9-5.7c-17.4-32.2-28.4-67.3-44.3-100.1
			c-4.4-9-8.1-18.3-13-27c-11.8-21.3-11.1-42.5,0.5-63.3c9.3-16.7,16.6-34.2,23.7-51.9c5.4-13.6,11-27.2,17-40.6
			c2.6-5.9,4.4-11.8,0.7-17.9c-0.3-0.5-0.2-1.2,0-1.8c75.4,0,150.7,0,226.1,0c1.1,1.3,1.2,2.9,0.9,4.4c-1,6.1-0.5,12.2-0.6,18.2
			c-1.4,81-0.9,162-1,243c0,11.2,1.5,22.4,0.2,33.6c-0.9,8.2,2.7,11.1,11.2,11.2c9.4,0,12.9-2.9,12.9-11.4c0.1-41.4,0-82.7,0-124.1
			c0-40,0-79.9,0-119.9c0-2-0.1-4.1,0.1-6.1c0.2-2,0.8-3.7,3-4.2c2.2-0.4,4,0.2,5.3,2.1c0.9,1.3,1.5,2.8,2,4.2
			c18,47.8,35,95.9,52.4,143.9c12,33.2,24,66.4,35.5,99.7c0.9,2.5,1.8,5,3,7.4c2.7,5.1,6.8,8,12.7,8.3c3.4,0.1,6.9,0.3,10.3-0.1
			c4.8-0.5,6.6-2.5,6.8-7.2c0.1-1.4,0-2.8,0-4.2c0-91,0-182,0-273.1c0-7.2-0.7-14.3-2.4-21.3c-0.4-1.5-0.9-3,0-4.5
			c68.9,0,137.8,0.1,206.7-0.2c10.1,0,20.2-0.9,30.3-0.8C1134.3,272.7,1136.2,272,1137.5,273.7c-1.6,1.6-3.7,1.4-5.7,1.4
			c-4.2,0.1-8.4,0-12.6,0c-5.9,0.1-6.2,0.3-6.3,6.5c0,1.6,0,3.1,0,4.7c0,79.9,0.1,159.8-0.1,239.8c0,13.7-1.2,27.4-0.9,41.2
			c0.1,3.6,0.4,7.2,1.3,10.7c0.9,3.6,3.2,5.7,6.9,6c4.5,0.5,9.1,0.6,13.6,0c5.4-0.7,7.9-3.4,8.8-8.8c0.3-2.2,0.3-4.4,0.3-6.5
			c0-41.2,0.1-82.4-0.1-123.6c0-9.2-1.3-18.4-0.8-27.6c2-39.8,0.4-79.6,0.9-119.4c0.1-7.7-0.2-15.3-4.8-22
			C1137.4,275.3,1137.3,274.5,1137.5,273.7z"/>
		<path class="st2" d="M895.7,273.7c3.1,8.2,3.6,16.7,3.6,25.3c0,87.5-0.1,174.9-0.1,262.4c0,5.1,0.5,10.3,0.5,15.4
			c0.1,5.5-2.1,8.2-7.6,8.7c-4.3,0.4-8.8,0.5-13.1,0.1c-7-0.7-11.1-5.2-13.3-11.6c-5.6-15.9-11.2-31.8-16.9-47.6
			c-24.2-67.2-47.9-134.5-73-201.3c-0.4-1.2-1-2.3-1.3-3.5c-0.6-2.3-2.3-2.1-4.1-1.9c-2,0.2-2.1,1.5-2.1,3c0,1.1,0,2.2,0,3.3
			c0.1,80.1,0.2,160.2,0.2,240.3c0,1.1,0,2.2,0,3.3c0.4,11.7-1.8,17-17,16.3c-7.4-0.3-10.4-3.4-10.2-11c0.2-9.4,0.1-18.7,0.1-28.1
			c-0.1-67.5-0.1-134.9,0-202.4c0-17.8,0.2-35.6,0.2-53.4c0-5.8,1-11.5,1.5-17.2c12.4,0,24.8,0,37.2,0c6.3,6,11.5,12.4,14.4,20.9
			c20.6,59.8,41.7,119.4,62.9,179c2.2,6.3,4.8,12.6,6.6,19c0.3,1.1,0.7,2.1,1.3,3c0.9,1.4,2.2,2.3,3.9,1.9c1.9-0.4,2.9-1.8,2.9-3.8
			c0-3-0.5-5.9-0.5-8.9c0-64.7,0-129.3,0-194c0-4.1,0.5-8.1,1.6-12c0.6-2.1,1.4-4.2,3.6-5.2C883.3,273.6,889.5,273.6,895.7,273.7z"
			/>
		<path class="st2" d="M517.2,273.7c4.2,5.4,4.4,11.3,1.7,17.2c-15,32.2-25.6,66.3-42.9,97.5c-10.4,18.8-10.9,38.3-1,57.8
			c19.4,37.9,35.1,77.5,51.5,116.7c1.8,4.4,4.3,8.3,6.8,12.2c2.9,4.4,2,6.9-2.9,8.5c-3.7,1.2-7.4,2.3-11.2,3.2
			c-9.1,2-14.2-0.5-18-9.1c-9.4-21.1-18.7-42.2-27.1-63.7c-5.8-14.8-11.4-29.7-17.1-44.5c-0.5-1.3-1-2.6-1.6-3.9
			c-1.2-2.4-2.9-4-5.8-3.9c-2.8,0.1-4.2,1.8-5.2,4c-15.6,33.9-31.1,67.7-39.9,104.2c-3.2,13.1-6.8,15.6-20.4,15.6
			c-1.2,0-2.5,0-3.7,0c-9.7-0.1-12-3-8.2-12.1c8.3-19.8,16.9-39.5,24.7-59.6c9.4-24.4,18.9-48.8,28.6-73.1
			c5.2-13.1,4.8-25.7-0.9-38.5c-17-38.1-33.6-76.5-50.6-114.6c-2-4.6-3.2-9-1.8-13.9c8.7,0,17.3,0,26,0c1.6,1.1,2.7,2.5,3.6,4.2
			c6.6,12.9,13,25.9,17.4,39.8c5.2,16.2,10.1,32.5,18.3,47.6c2.3,4.2,4.9,8.3,6.7,12.9c0.7,1.8,1.9,3.4,4.1,3.4
			c2.3,0,3.7-1.6,4.5-3.6c2.6-6,5.1-12.1,7.5-18.2c8.2-20.2,15.1-41,24-60.9c3.2-7.1,6.8-14,10.4-21c1.7-3.4,4.2-5.2,8.2-4.7
			C507.6,273.6,512.5,272.5,517.2,273.7L517.2,273.7z"/>
		<path class="st1" d="M877.1,273.6c-2.7,4.7-3.8,9.9-3.8,15.2c0,66,0,132,0,198c0,1.5,0.1,3.1,0.4,4.6c0.9,3.6,0.5,6.7-3.6,7.8
			c-4.3,1.1-5.7-2.1-6.9-5.3c-4.5-12.9-8.9-25.8-13.4-38.7c-19.1-54.4-38.2-108.7-57.2-163.1c-1.4-4-3.5-7.6-6.5-10.6
			c-2.3-2.3-4.7-4.6-5.7-7.9C812.7,273.6,844.9,273.6,877.1,273.6z"/>
		<path class="st3" d="M134.8,540.4c-6.1-1.6-6.6-6.5-7.4-11.6c-4-26.5-10.6-52.1-25.2-75c-3.1-4.9-6.7-9.3-10.4-13.8
			c-1.5-1.8-3.2-2.9-5.6-2.2c-2.6-2.8,0.8-5.7,0-8.5c1-0.1,1.9-0.2,2.9-0.2c1.6-0.8,3.2-1.3,4.9-1.1c20.8,1.7,41.7,0.3,62.5,0.8
			c17.3,0.4,34.4,2.5,51.5,5.2c3.2,0.5,6.6,1.1,7.9,4.9c1,9.5-2.5,17.7-8.9,24.1c-11.1,11.2-21.5,22.9-32.2,34.5
			c-12.2,13.1-25.2,25.5-36.2,39.6C137.6,538.4,136.3,539.5,134.8,540.4z"/>
		<path class="st1" d="M517.2,273.7c-5,0-10,0.1-15-0.2c-3-0.2-4.4,1.1-5.8,3.5c-11.1,19.7-18.8,40.9-26.9,61.9
			c-5,12.9-10.1,25.7-15.2,38.6c-1.1,2.9-2.8,5.4-6.3,5.5c-3.4,0-4.4-2.8-5.8-5.4c-7.3-14.3-14.6-28.5-19.2-43.9
			c-6.2-20.9-14.2-41.1-25-60.1c26.6,0,53.2-0.2,79.9,0.1c11.5,0.1,22.9-1.5,34.4-1C514.1,272.8,515.9,272,517.2,273.7z"/>
		<path class="st4" d="M86.3,633.6c1.3-0.2,2.5,0.2,3.7,0.8c1.5,1.7,1.5,3.7,1.5,5.7c0,17.2,0.4,34.4-0.2,51.5
			c-0.2,7.9-0.8,15.9-0.7,23.8c0.1,9.3,2.8,12.3,11.9,13.5c2.6,0.4,5.3,0.3,7.9,0.3c31.1,0,62.1,0.2,93.2,0
			c301.5-2.1,603-0.3,904.5-0.9c12.5,0,24.9,1.6,37.4,1c2.2-0.1,4.4,0.2,6.5-0.3c7.7-1.6,14.9-0.5,21.5,3.9c0.6,0.4,0.7,0.9,0.5,1.6
			c-3.6,0-7.2,0-10.8,0c-352.8,0-705.7,0-1058.5,0.1c-1.6,0-3.1,0-4.7,0c-10-0.4-14.3-3.5-14.1-13.9
			C86.5,691.7,86.2,662.6,86.3,633.6z"/>
		<path class="st5" d="M1174.1,734.6c0-0.3,0-0.7,0-1c-1.4-1.5-1.4-3.4-1.4-5.3c-0.1-30.2,0-60.5-0.1-90.7c0-1.1,0.1-2.2,0.6-3.2
			c1.6,0,3.1,0,4.7,0c0,30.1,0,60.1,0,90.2c0,1.6-0.1,3.2,0.3,4.6C1179.4,733.1,1177.6,734.4,1174.1,734.6z"/>
		<path class="st6" d="M1173.2,634.4c1.1,1.9,0.7,4,0.7,6c0.1,31.1,0.1,62.1,0.2,93.2c-1.5,0.5-3.2,0.8-4.4-0.5
			c-2.8-3.2-6.5-3.4-10.3-3.1c-13.7,1.1-27.4,0.3-41.2,0.3c-262.2-0.1-524.3-0.2-786.5-0.2c-26.9,0-53.7,0-80.6,0.1
			c-47.8,0.2-95.5,0.4-143.3,0.5c-15.8,0-19.6-3.2-18.8-18.7c1.2-25.9,0.6-51.8,0.9-77.7c57.9-0.3,115.8-0.6,173.8-0.9
			c22.2-0.1,44.4,0.4,66.5-0.3c18.5-0.6,37.1-0.7,55.6-0.4c27.9,0.6,55.9,0.4,83.8,0.5c227.2,0.1,454.4,0.1,681.6,0.1
			C1158.5,633.3,1165.9,633.3,1173.2,634.4z"/>
		<path class="st2" d="M564,432.5c0-44.7,0-89.3,0-134c0-3.1-0.1-6.3,0.2-9.4c0.6-8,4.1-11.6,12.2-11.8c7.6-0.2,15.3,0.1,23,0.1
			c29.7,0,59.3,0,89,0c1.4,0,2.8,0,4.2,0.1c6.2,0.6,6.9,1.8,5.8,8c-0.5,2.9-0.2,5.9-0.1,8.9c0.3,9-2.1,11.6-11.2,11.3
			c-19.4-0.6-38.7-0.3-58.1-0.3c-7.2,0-14.4,0-21.5,0c-9.9,0-13.4,3.4-13.2,13.2c0.3,19.8,0.8,39.7,0.5,59.5c-0.1,7-0.4,14-0.4,21.1
			c0,9.7,3.1,12.7,12.7,12.5c13.9-0.3,27.8-1,41.6,0.4c3.6,0.4,7.4-0.6,11.1-1c7.6-0.8,11.1,1.7,12.6,9.1c0.2,0.9,0.3,1.8,0.4,2.8
			c1,14.3-3.2,18.6-17.4,17.3c-9.8-0.9-19.6,0.8-29.5,0.2c-5.9-0.3-11.8-0.6-17.8-0.8c-9.9-0.3-13.8,3.3-13.8,13.2
			c0.1,18.9,0.5,37.8,0.5,56.7c0,11.4-0.5,22.8-0.5,34.2c-0.1,10,2.9,12.9,12.8,12.9c27.3-0.1,54.7-0.1,82-0.3
			c11-0.1,14.2,2.9,14.5,14c0.1,1.6,0.1,3.1,0,4.7c-0.6,7.6-3.7,10.6-11.3,10.7c-39.7,0-79.3,0-119-0.1c-7.3,0-10.2-2.4-10.2-9.8
			c-0.2-20.4,0.2-40.9,0.2-61.3c0-27.3,0-54.6,0-82C563.4,432.5,563.7,432.5,564,432.5z"/>
		<path class="st6" d="M982.2,447c0-41.5,0-83.1,0-124.6c0-2.3,0-4.7-0.2-7c-0.6-9-5-13.5-13.9-12.5c-12,1.3-24,0.4-36,0.6
			c-8.7,0.2-11.2-2.2-11.2-11c-0.1-11.7,3.2-15.4,14.8-15.4c41.8-0.1,83.7,0,125.5,0.1c4.5,0,9.2,0.2,11.3,4.9
			c2.5,5.6,2.7,11.6-0.1,17.2c-1.8,3.7-5.9,3.8-9.4,4.1c-7.5,0.6-15-0.2-22.4-1.2c-4.5-0.6-9-0.8-13.5-0.6
			c-10.9,0.4-16.1,5.7-16.9,16.6c-0.4,6.4,0.4,12.8,1.1,19.1c0.6,6.1,0.8,12.1,0.8,18.2c0,69.3-0.2,138.7,0.2,208
			c0.1,11.5-12.8,23.5-23.6,22.2c-4.8-0.6-6.9-2.6-6.9-7.1c0.1-30.6,0.2-61.2,0.3-91.8c0-13.3,0-26.5,0-39.8
			C982.1,447,982.2,447,982.2,447z"/>
		<path class="st6" d="M1137.5,273.7c5.2,5.1,6.6,11.4,6.5,18.4c-0.2,41.4-0.4,82.8-0.4,124.1c0.1,50.3,0.4,100.6,0.6,150.8
			c0,2.8,0.1,5.6-0.2,8.4c-0.7,6.2-3.7,9.4-9.8,10c-4.2,0.4-8.4,0.6-12.6,0.3c-6.7-0.3-9.6-3-10.4-9.7c-1.3-11.7-0.4-23.4-0.4-35.1
			c-0.1-17.2,0.3-34.3,0.3-51.5c0-70.1,0-140.2-0.2-210.3c0-4.4,0.8-6,5.5-5.7C1123.4,274,1130.5,273.7,1137.5,273.7
			C1137.5,273.7,1137.5,273.7,1137.5,273.7z"/>
		<path class="st6" d="M364.3,433c5.5,6.4,5.5,6.4,0.6,14c-16,24.5-25.2,51.7-32.1,79.8c-1,3.9-2.4,7.4-5.2,10.2
			c-2.6,0.8-4-1.1-5.7-2.4c-8.4-6.4-15.4-14.1-21.8-22.4c-8.4-10.9-16.4-21.9-25.6-32.2c-4.2-4.7-9.1-8.5-13.7-12.7
			c-6.9-6.3-12.8-13.1-16.5-21.7c-0.9-2.2-2.7-3.3-4.7-4.3c-3.8-2-8-3.6-10.8-7.1c-0.4-1.4-0.3-2.6,0.8-3.7c1-0.6,2.1-0.8,3.3-0.8
			c14.9,0.4,29.9,1.4,44.8,1.7c15.7,0.3,31.5-1.6,47.2-0.9c11.5,0.5,23,1.1,34.6,1C361.3,431.5,363.1,431.5,364.3,433z"/>
		<path class="st7" d="M229.6,434.8c4.4,2.3,8.7,4.6,13.1,6.8c1.4,0.7,2.1,1.9,2.5,3.2c2.5,7.1,6.7,13.2,12.3,17.9
			c17.4,14.7,31.1,32.6,44.8,50.5c7.1,9.3,14.9,17.9,25.2,23.9c1.8,3.8,0.7,5.9-3.5,6.5c-31,4.7-58.1,18.5-84.1,35.2
			c-2.8,1.8-5.4,4.2-8.8,5.2c-1.7-2.2-1.3-4.7-1.3-7.2c0-15.1-0.1-30.2,0-45.3c0-6.2-1.8-12.4-0.6-18.6c0.1-0.8,0.5-1.5,0.5-2.3
			c0.1-16.9,0.7-33.8-0.3-50.8c-0.5-7.8-2-15.6-2.6-23.4C227.5,435.2,228.4,434.8,229.6,434.8z"/>
		<path class="st3" d="M364.3,433c-9,0.1-18.2,1.2-27.1,0c-11-1.5-22-0.9-32.9-0.7c-7.9,0.1-15.8,0.6-23.7,0.6
			c-16.1,0.1-32.2-0.9-48.3-2c0-1.6,1.2-2.2,2.3-2.6c4.2-1.6,6.7-4.9,8.7-8.7c4.7-9,11.4-16.4,18.4-23.5
			c13.6-14,26.7-28.4,40.8-41.9c8-7.7,15.2-16.1,21.6-25.2c0.8-1.1,1.5-2.4,3-2.8c6.4,6.2,8.5,14.3,10.2,22.5
			c2.8,13.5,4.2,27.4,9.8,40.3c4.7,10.8,10.3,21,17.1,30.6C367.6,424.4,368.2,428.5,364.3,433z"/>
		<path class="st2" d="M327.1,326.2c-4.8,8.2-10.9,15.5-17.5,22.3c-15.5,16.2-31.4,32-46.9,48.2c-8,8.3-15.5,17-20.7,27.4
			c-2,4-6.9,3.9-9.7,6.8c-0.8,0-1.7,0-2.5,0c-0.5-0.4-0.8-0.9-1-1.5c-1.1-7.1-0.9-14.4-0.4-21.5c0.9-11.2,0.6-22.4,0.8-33.6
			c0-1.4,0.1-2.8,0.4-4.2c0.4-1.5,0.7-3,0.7-4.6c-0.1-16.6,0.1-33.2-0.1-49.8c-0.2-9.1-0.1-18.1-0.1-27.2c0-2,0.1-4.1,1.5-5.8
			c1.6-0.4,2.5,1,3.5,1.7c28,18.7,57.6,34,90.8,41.1C326.3,325.7,326.7,326,327.1,326.2z"/>
		<path class="st2" d="M230.6,512.8c1.2,23.7,0.8,47.4,0.7,71.1c-1.3,0.8-1.9-0.4-2.7-0.9c-28.7-19.8-59.7-34.5-93.7-42.6
			c5.6-8.7,12.7-16.1,19.8-23.4c17.5-17.7,33.5-36.8,51.2-54.3c6.1-6,8.7-13.8,9.8-22.2c3-5.1,8.1-7,12.1-4.3c1.8,7.4,3,15,2.9,22.7
			c0.9,9.5,0.3,18.9,0.3,28.4C230.9,495.8,231.4,504.3,230.6,512.8z"/>
		<path class="st6" d="M227.7,436.2c-5-1.3-8.6,1.5-12.1,4.3c-1.5-4.9-5.9-5-9.7-5.6c-28.5-4.8-57.2-5.4-86-4.6
			c-10.3,0.3-20.5-0.2-30.8-1.2c23-26.7,34.1-58.5,40.1-92.6c0.7-4.3,1.6-8.6,5.7-11.2c1.7,0.4,2.5,1.7,3.4,3
			c11.2,16,24.3,30.4,37.6,44.5c13.5,14.3,27.8,27.7,41.2,42.1c4.4,4.7,9.7,8.8,12.4,15c0.1,0.3,0.1,0.7,0.2,1c0,1.3,0,2.6-0.1,3.9
			C229,435.2,228.3,435.7,227.7,436.2z"/>
		<path class="st7" d="M229.5,429.9c-25.8-29-55.2-54.6-79.8-84.7c-5.2-6.4-10.2-13-14.7-19.9c11.1-3.1,22.2-5.7,33-9.7
			c20.9-7.8,40.5-18.1,59.2-30.3c1.4-0.9,2.6-2.3,4.4-2.4c0,10.9,0,21.8-0.1,32.7c-0.9,2.9-0.4,5.9-0.4,8.8
			c-0.2,15.2,0.4,30.5-0.3,45.8C230.3,390,229.9,410,229.5,429.9z"/>
		<path class="st8" d="M668.6,699.8c3.5-13.6,7.1-26.9,10.2-40.4c1.1-4.9,4.4-3.4,7.1-3.4c3.5,0.1,1.9,3,1.9,4.6
			c0.1,15.1,0.1,30.3,0.1,45.4c0,2,0.9,4.4-2.9,4.3c-3.5-0.1-2.6-2.4-2.6-4.2c0-13.1,0-26.1-0.8-39.3c-2.9,11.4-5.8,22.8-8.7,34.2
			c-0.5,1.8-0.8,3.7-1.3,5.4c-0.5,1.8-0.4,4-3.5,3.9c-3,0-3.1-1.8-3.6-3.8c-3-12.1-6.1-24.2-9.2-36.2c-0.3-1.3-0.8-2.6-1.7-3.8
			c0,13.1,0,26.3,0,39.4c0,2,0.8,4.4-2.9,4.3c-3.5-0.1-2.6-2.4-2.6-4.2c0-15.3-0.1-30.6,0-45.9c0-1.7-1.2-4.6,2.4-4.3
			c2.8,0.2,6.4-1.8,7.6,3.5c2.8,12.8,6.2,25.4,9.3,38.1C667.3,698.3,667.2,699.1,668.6,699.8z"/>
		<path class="st0" d="M386,685.1c7.1,7,9.5,16.4,14.1,24.7c-5.1,1.4-7.9,0.1-9.6-4.8c-1.7-4.8-4.3-9.3-6.8-13.8
			c-2.7-4.9-7.9-6.9-13.2-5.4c-2.1,0.6-1.4,2.2-1.4,3.4c-0.1,5.9-0.1,11.8,0,17.8c0.1,2.3-0.5,3.3-3.1,3.3c-2.6,0-2.6-1.3-2.6-3.2
			c0-16.1,0.1-32.1,0-48.2c0-2.6,0.9-3.2,3.2-3.1c5.5,0.1,10.9,0,16.4,0.1c7.7,0.1,11.7,3.1,13.2,9.9c1.8,8.1-0.8,14.9-7.1,18
			C388.1,684.3,387.1,684.7,386,685.1z"/>
		<path class="st8" d="M765.6,696.4c0-12.1,0-24.2,0-36.3c0-1.7-1.2-4.2,2.4-4.3c3.7-0.1,2.9,2.3,2.9,4.3c0,15.3,0,30.6,0,45.8
			c0,1.4,1.2,3.8-1.5,4.2c-2.3,0.3-4.3,0.4-5.7-2.5c-5.8-11.9-12-23.6-18-35.4c-0.3-0.6-0.7-1.2-2.1-1.8c0,4.2,0,8.5,0,12.7
			c0,7.6,0,15.3,0,22.9c0,1.8,0.8,4.1-2.6,4.2c-3.3,0.1-2.9-2-2.9-4c0-15.6,0-31.2,0-46.8c0-1.3-1-3.4,1.6-3.6
			c2.1-0.2,4.1-0.4,5.4,2.3c4.7,9.7,9.7,19.1,14.7,28.7c1.6,3.2,3.3,6.4,4.9,9.5C765,696.5,765.3,696.4,765.6,696.4z"/>
		<path class="st8" d="M185.5,696.7c0-12.6,0-25,0-37.4c0-1.6-0.5-3.5,2.3-3.4c2,0.1,3.1,0.3,3.1,2.8c-0.1,16.2,0,32.4-0.1,48.7
			c0,1.3,0.4,2.9-1.9,3c-2.2,0-4.1,0.1-5.3-2.5c-4.7-9.7-9.7-19.2-14.6-28.7c-1.5-2.9-3-5.7-4.7-9.1c-1.2,1.6-0.8,3-0.8,4.3
			c0,10.8,0,21.5,0,32.3c0,2.2,0.2,3.9-3,3.8c-3.2-0.1-2.5-2.1-2.5-3.8c0-15.4,0-30.9,0-46.3c0-1.4-1.2-3.7,1.4-4.2
			c2.3-0.4,4.3-0.3,5.7,2.5c5.8,11.9,12,23.6,18.1,35.3C183.8,694.8,183.9,696,185.5,696.7z"/>
		<path class="st8" d="M292,670.6c0,11.8,0,23.6,0,35.4c0,1.3,0.6,3.1-0.7,3.9c-0.9,0.6-2.4,0.4-3.6,0.2c-1.6-0.2-1.2-1.6-1.2-2.6
			c0-16.2,0-32.4,0-48.7c0-1.3-0.4-3,1.9-2.9c2,0,3.8-0.3,5,2.2c4.7,9.5,9.6,18.9,14.5,28.3c1.7,3.4,3.5,6.8,6.1,10
			c0-12.2,0-24.4,0.1-36.6c0-1.4-1.2-3.6,1.8-3.9c2.9-0.3,3.7,0.7,3.7,3.6c-0.1,15.6,0,31.2-0.1,46.8c0,1.4,1.1,3.7-1.8,3.9
			c-2.2,0.2-4.1,0.3-5.4-2.4c-5.2-10.6-10.7-21.1-16.1-31.6c-1-1.9-2-3.8-3-5.7C292.7,670.5,292.3,670.6,292,670.6z"/>
		<path class="st9" d="M1010.8,682.6c0-7.6,0.2-15.3-0.1-22.9c-0.1-3.2,1-4,4-3.8c3.4,0.2,6.9,0.1,10.3,0.1
			c10.6,0,15.9,3.8,18.7,13.9c2.6,9.5,2.5,19.1-0.8,28.5c-3,8.4-8.1,12-16.9,11.8c-4.9-0.1-11.5,2.2-14.3-1c-2.4-2.7-0.7-9.2-0.8-14
			C1010.8,691.1,1010.8,686.8,1010.8,682.6z"/>
		<path class="st9" d="M875.9,682.9c0-7.8,0.1-15.6-0.1-23.4c-0.1-2.9,0.9-3.8,3.7-3.6c4.4,0.2,8.7,0.1,13.1,0.1
			c6.6,0,11.5,3.1,14.1,9c5.4,12,5.1,24.3,0,36.3c-2.6,6.1-7.8,9.1-14.5,9.1c-4.1,0-8.1-0.2-12.2,0.1c-3.2,0.2-4.3-0.7-4.2-4.1
			C876,698.5,875.9,690.7,875.9,682.9z"/>
		<path class="st9" d="M796.2,683.2c0-8,0.1-15.9-0.1-23.9c0-2.6,0.6-3.6,3.4-3.5c3.6,0.2,7.2,0.1,10.8,0.1
			c10.8,0,16.1,3.8,18.9,14.3c2.6,9.6,2.4,19.2-1,28.5c-3,8.1-8.1,11.5-16.7,11.6c-3.9,0-7.8-0.2-11.7,0.1c-3,0.2-3.6-1-3.6-3.7
			C796.3,698.8,796.2,691,796.2,683.2z"/>
		<path class="st9" d="M465.4,683c0-7.5,0.3-15-0.1-22.5c-0.2-4.1,1.2-5.1,5-4.7c2.9,0.3,5.9,0.1,8.9,0.1c11.4,0,16.5,3.8,19.3,14.9
			c2.4,9.3,2.2,18.6-1.1,27.6c-3,8.4-8.1,11.8-17,11.8c-4.8,0-11.2,1.6-14-0.8c-3.2-2.8-0.8-9.3-1-14.3
			C465.3,691.2,465.4,687.1,465.4,683z"/>
		<path class="st9" d="M279.8,683.7c-0.3,6-1.2,12-4.2,17.5c-3.3,6-8.2,9.7-15.2,10c-7.1,0.3-12.5-3-15.8-9
			c-6.8-12.3-6.7-25.1-0.5-37.6c3.1-6.2,8.5-9.8,15.9-9.6c7.3,0.2,12.2,4,15.7,10.1C278.9,670.9,279.6,677.2,279.8,683.7z"/>
		<path class="st9" d="M601.6,685.9c0-10.5,1.2-17.6,5.8-23.7c7.4-9.7,20.5-9.8,28-0.1c7.8,10,8.1,31.3,0.5,41.6
			c-7.9,10.7-22.6,10-29.7-1.5C603,697,601.5,690.9,601.6,685.9z"/>
		<path class="st9" d="M442.9,683.5c-0.3,6.2-1.2,12.3-4.3,17.9c-7,12.6-23.6,13.4-30.8,0.9c-7.1-12.3-7.2-25.5-0.4-38
			c7.2-13.2,24-12.6,31.3,0.6C441.9,670.7,442.6,677,442.9,683.5z"/>
		<path class="st9" d="M972.3,711.2c-9.9,0.1-16.8-6.4-17.4-16.4c-0.1-1.4-1-3.3,1.7-3.3c2.1-0.1,3.3,0.1,3.8,2.7
			c1.8,8.4,8.6,12.3,15.8,9.6c3.7-1.4,5.7-4.1,6-8.1c0.2-4-1.6-6.6-5.2-8c-4.2-1.7-8.6-2.9-12.7-4.7c-6.9-3.1-9.8-10.2-7.5-18.1
			c2-7,8.2-10.8,16.4-10c7.1,0.7,12.9,6.7,13.2,13.6c0.1,1.2,0.2,2.3-1.4,2.3c-1.7-0.1-3.8,0.9-4.2-2.1c-0.9-6.6-8.8-8.4-14.1-6.5
			c-3.4,1.3-4.8,3.9-5,7.2c-0.2,3,1.2,5.5,4.2,6.6c4.2,1.6,8.6,2.8,12.7,4.6c7.3,3.1,10.5,9.8,8.9,18.1
			C986,706.3,980.1,711.2,972.3,711.2z"/>
		<path class="st0" d="M918.2,682.9c0-8,0.1-15.9,0-23.9c0-2.4,0.6-3.3,3.1-3.2c8.1,0.1,16.2,0.1,24.3,0c2.4,0,2.9,1,2.8,3.1
			c-0.1,1.8,0.4,3.7-2.7,3.6c-6.2-0.2-12.5,0-18.7-0.1c-2.4-0.1-3.3,0.7-3.2,3.2c0.2,3.3,0.2,6.6,0,9.8c-0.2,2.6,1,3.1,3.3,3.1
			c5.5-0.1,10.9,0.1,16.4-0.1c2.8-0.1,3.4,1,3.4,3.5c0,2.4-0.8,3.2-3.2,3.2c-5.6-0.2-11.2,0-16.8-0.1c-2.2-0.1-3,0.7-2.9,2.9
			c0.1,4.4,0.2,8.7,0,13.1c-0.1,2.4,0.9,2.8,3,2.8c6.4-0.1,12.8,0.1,19.2-0.1c2.8-0.1,3.4,0.9,3.3,3.5c0,2.4-0.6,3.2-3.1,3.2
			c-8.3-0.1-16.5-0.2-24.8,0c-2.8,0.1-3.3-1.1-3.3-3.5C918.3,698.8,918.2,690.9,918.2,682.9z"/>
		<path class="st0" d="M1052.2,683.2c0-8,0.1-15.9-0.1-23.9c0-2.6,0.6-3.5,3.4-3.5c7.9,0.2,15.9,0.2,23.8,0c2.6-0.1,3.1,1,3,3.3
			c0,2.1-0.1,3.5-2.9,3.4c-6.1-0.2-12.2,0.1-18.2-0.1c-2.6-0.1-3.4,0.7-3.4,3.4c-0.3,12.6-0.4,12.6,11.9,12.6c2.3,0,4.7,0,7,0
			c2.3-0.1,4.1-0.2,4.1,3.2c0,3.2-1.4,3.5-4,3.4c-5.3-0.1-10.6,0.1-15.9-0.1c-2.4-0.1-3.3,0.7-3.2,3.1c0.2,4.2,0.2,8.4,0,12.6
			c-0.1,2.6,0.9,3.1,3.3,3.1c6.2-0.1,12.5,0,18.7-0.1c2.4-0.1,3.7,0.3,3.6,3.2c-0.1,2.6-0.6,3.5-3.4,3.5c-8.1-0.2-16.2-0.2-24.3,0
			c-3.1,0.1-3.6-1.1-3.5-3.8C1052.3,698.8,1052.2,691,1052.2,683.2z"/>
		<path class="st0" d="M119.8,683.1c0-8,0.1-15.9-0.1-23.9c-0.1-2.7,0.8-3.5,3.4-3.4c7.9,0.2,15.9,0.2,23.8,0c2.7-0.1,3,1.2,3,3.4
			c0,2.2-0.3,3.4-3,3.3c-6.1-0.2-12.2,0.1-18.2-0.1c-2.7-0.1-3.3,0.9-3.4,3.4c-0.3,12.5-0.3,12.5,12,12.5c2.3,0,4.7,0.1,7,0
			c2.4-0.1,4-0.1,4,3.3c0,3.3-1.6,3.4-4,3.3c-5.3-0.1-10.6,0.1-15.9-0.1c-2.5-0.1-3.3,0.8-3.1,3.2c0.4,5.1-2.1,11.7,1,14.8
			c2.5,2.5,9.1,0.7,14,0.8c2.2,0,4.4,0.1,6.5,0c2.4-0.1,4-0.1,4,3.3c0,3.3-1.5,3.4-3.9,3.4c-7.8-0.1-15.6-0.2-23.4,0
			c-3,0.1-4-0.7-3.9-3.8C120,698.7,119.8,690.9,119.8,683.1z"/>
		<path class="st0" d="M507.7,682.6c0-7.6,0.2-15.3-0.1-22.9c-0.1-3.1,0.9-3.9,3.9-3.8c7.6,0.2,15.3,0.2,22.9,0
			c2.6-0.1,3.4,0.7,3.4,3.4c0,2.8-1,3.4-3.5,3.3c-5.8-0.2-11.5,0.1-17.3-0.1c-3.2-0.1-3.8,1-3.8,4c0,12-0.1,12,12,12
			c2.3,0,4.7,0.1,7,0c2.4-0.1,4,0,4,3.3c0,3.4-1.7,3.3-4.1,3.3c-5.1-0.1-10.3,0.2-15.4-0.1c-3-0.2-3.8,1-3.5,3.7
			c0.4,4.9-2.1,11.3,1.1,14.3c2.5,2.4,8.9,0.7,13.5,0.8c2.3,0,4.7,0.1,7,0c2.4-0.1,4-0.1,4,3.3c0,3.3-1.5,3.4-4,3.3
			c-7.9-0.1-15.9-0.1-23.9,0c-2.6,0.1-3.5-0.7-3.4-3.4C507.8,698.8,507.7,690.7,507.7,682.6z"/>
		<path class="st8" d="M872,709.8c-5.1,1.6-6.9-0.3-8-4.6c-3.2-11.9-3.4-11.6-15.9-11.9c-3.7-0.1-5.3,1-5.9,4.6
			c-0.4,2.6-1.6,5.1-2,7.7c-0.8,4.2-2.8,5.9-7.3,4.2c5.1-17.1,10.3-34.3,15.4-51.4c0.5-1.8,1.5-2.5,3.3-2.4c1.7,0.1,3.2-0.1,3.9,2.2
			C860.9,675.4,866.5,692.5,872,709.8z"/>
		<path class="st8" d="M702.8,675.9c0,5.8-0.3,11.6,0.1,17.3c0.6,9.1,6.7,13.3,14.5,10.7c3.6-1.2,5.3-3.9,5.9-7.2
			c0.6-3.4,0.9-6.8,0.9-10.2c0.1-9.2,0.1-18.4,0-27.6c0-2.2,0.6-3.1,2.9-3c1.8,0.1,2.9,0.4,2.8,2.6c-0.4,12.9,1,25.9-0.9,38.8
			c-1.3,8.9-6.7,13.8-14.8,14c-9.3,0.2-14.4-3.8-16.3-13.2c-0.4-1.8-0.7-3.7-0.7-5.6c-0.1-11.1-0.1-22.2-0.2-33.3
			c0-2.2,0.3-3.4,3-3.3c2.5,0.1,2.7,1.2,2.7,3.2c-0.1,5.6,0,11.2,0,16.9C702.7,675.9,702.8,675.9,702.8,675.9z"/>
		<path class="st9" d="M198.7,683.1c-0.1-7,0.9-13.1,4.1-18.7c3.8-6.7,9.7-10,17.5-9.4c6.3,0.5,11.7,5.7,13.8,13
			c0.5,1.6,1.3,3.3-1.5,3.8c-1.9,0.4-3.1,1.1-4.1-1.7c-2.3-6.4-5.7-8.8-10.8-8.6c-5.2,0.2-9.6,3.7-11.5,9.5c-2.5,8-2.4,16,0,24
			c1.8,6,6.6,9.7,11.8,9.6c4.9-0.1,8.7-3.5,10.9-9.5c0.6-1.8,0.3-4.6,4-3.4c3.7,1.3,2.1,3.5,1.5,5.5c-3.6,11.7-13.2,16.9-23.4,12.6
			c-5.8-2.5-8.6-7.6-10.3-13.2C199.2,692.1,198.4,687.4,198.7,683.1z"/>
		<path class="st9" d="M566,682.7c0.4,4.3,0.5,8.4,1.8,12.2c2,6,6.6,9.7,11.8,9.7c4.9-0.1,8.8-3.4,10.9-9.4c0.2-0.6,0.5-1.2,0.6-1.8
			c0.2-1.9,1.3-2.4,2.9-1.7c1.3,0.5,3.3,0.4,2.8,2.8c-2.4,11.6-10.9,20.2-24.1,15.4c-4.7-1.7-7.5-5.6-9.2-10.1
			c-4-10.2-4.4-20.7-1-31.1c1.7-5.4,4.9-9.8,10.2-12.2c10.5-4.6,20.3,0.6,23.4,12.7c0.6,2.2-0.9,2.2-2.2,2.6
			c-1.3,0.3-2.7,1.5-3.4-0.7c-0.1-0.4-0.2-0.9-0.4-1.4c-1.8-4.7-4.7-8.2-10.2-8.2c-5.6,0-9.3,3.1-11.5,8.1
			C566.6,673.9,566.5,678.5,566,682.7z"/>
		<path class="st9" d="M1116.1,686.2c0-6.9-0.1-13.7,0-20.6c0-2.4-0.6-3.4-3.1-3.2c-2.3,0.2-4.7-0.1-7,0.1c-2.6,0.2-4-0.2-3.9-3.4
			c0.1-2.9,1.3-3.2,3.7-3.2c8.7,0.1,17.5,0.1,26.2,0c2.4,0,3.7,0.3,3.7,3.2c-0.1,2.6-0.8,3.5-3.5,3.5c-3.4,0-8.1-1.6-9.8,0.7
			c-1.7,2.4-0.7,6.8-0.7,10.4c0,11.1,0,22.2,0,33.2c0,2,0.1,3.5-2.8,3.5c-2.9,0-2.8-1.5-2.8-3.5
			C1116.1,700,1116.1,693.1,1116.1,686.2z"/>
		<path class="st9" d="M338.3,686.3c0-6.9-0.1-13.7,0-20.6c0-2.4-0.5-3.4-3.1-3.2c-2.5,0.2-5-0.1-7.5,0.1c-2.7,0.2-3.4-0.8-3.5-3.4
			c-0.1-2.9,1.3-3.3,3.7-3.2c8.7,0.1,17.5,0.1,26.2,0c2.4,0,3.6,0.3,3.7,3.2c0.1,3.2-1.4,3.4-3.9,3.4c-10,0.1-10,0.1-10,10.2
			c0,11.4,0,22.8,0,34.2c0,2,0.1,3.5-2.8,3.5c-2.9,0-2.8-1.5-2.8-3.5C338.4,700,338.3,693.1,338.3,686.3z"/>
		<path class="st10" d="M786,683.1c0,7.8,0,15.6,0,23.4c0,2.2,0.2,3.9-3,3.9c-3,0-2.7-1.7-2.7-3.6c0-15.8,0-31.5,0-47.3
			c0-1.9-0.2-3.6,2.7-3.6c3.2,0,3,1.7,3,3.9C786,667.5,786,675.3,786,683.1z"/>
		<path class="st10" d="M1142,682.6c0-7.6,0-15.3,0-22.9c0-2.1-0.2-3.9,3-3.9c2.9,0.1,2.8,1.7,2.8,3.6c0,15.8,0,31.5,0,47.3
			c0,2,0.1,3.6-2.8,3.6c-3.2,0.1-3-1.8-3-3.9C1142,698.6,1142,690.6,1142,682.6z"/>
		<path class="st11" d="M230.6,512.8c0-18,0-36,0-54c0.9,1.2,0.8,2.7,0.8,4.1c0,15.8-0.1,31.5-0.2,47.3
			C231.1,511,230.8,511.9,230.6,512.8z"/>
		<path class="st12" d="M310,430.7c-2,0.3-3.7,0.7-5.8-0.2C306.4,429.9,308.3,429.8,310,430.7z"/>
		<path class="st13" d="M230.7,370.1c0-17.4,0.1-34.9,0.2-52.3c0-0.7,0.4-1.5,0.6-2.2c0,17,0,34,0,51
			C231.4,367.8,231.7,369.1,230.7,370.1z"/>
		<path class="st14" d="M369.1,670.9c0-8.4,0-8.4,8.1-8.4c1.9,0,3.7-0.1,5.6,0c4.9,0.3,7.7,3,8,7.5c0.3,4.8-2.1,8.5-6.8,9.1
			c-4.3,0.5-8.7,0.2-13,0.3c-1.8,0-2-1.1-1.9-2.4C369.1,674.9,369.1,672.9,369.1,670.9z"/>
		<path class="st14" d="M1016.5,683.1c0-5.6,0.1-11.2,0-16.8c-0.1-2.6,0.4-3.8,3.5-3.8c14.7-0.3,19.3,4,19.4,18.8
			c0,3.9,0,7.8-0.9,11.6c-2,8-5.6,10.8-13.9,10.9c-8.1,0-8.1,0-8.1-8C1016.5,691.5,1016.5,687.3,1016.5,683.1z"/>
		<path class="st14" d="M881.6,683.1c0-5.9,0-11.9,0-17.8c0-1.4-0.1-2.5,2-2.9c13.3-2.2,20.3,3.4,20.8,16.9c0.2,4.5,0.2,9-0.9,13.5
			c-2,8-5.5,10.9-13.8,10.9c-8.1,0-8.1,0-8.1-8C881.6,691.5,881.6,687.3,881.6,683.1z"/>
		<path class="st14" d="M801.9,683.2c0-5.9,0.1-11.9,0-17.8c0-2.1,0.5-2.9,2.8-3c14.8-0.9,19.8,3.8,20.1,18.6
			c0.1,4.5,0,9.1-1.4,13.4c-2,6.5-5.6,9.1-12.3,9.2c-9.2,0.2-9.2,0.2-9.2-8.8C801.9,691,801.9,687.1,801.9,683.2z"/>
		<path class="st14" d="M471.1,683.1c0-5.6,0.1-11.2-0.1-16.8c-0.1-2.7,0.4-3.8,3.5-3.8c14.7-0.2,19.2,4,19.4,18.8
			c0,3.9,0,7.8-0.9,11.6c-2,8-5.6,10.8-13.9,10.8c-8,0-8,0-8-8C471.1,691.5,471.1,687.3,471.1,683.1z"/>
		<path class="st14" d="M273.8,682.7c0,6.4-0.7,11.7-4,16.4c-5.3,7.4-14.6,7.5-20,0.1c-5.3-7.2-5.7-23.8-0.7-31.3
			c5.7-8.6,16.6-8.3,21.7,0.7C273.3,673.2,274,678.3,273.8,682.7z"/>
		<path class="st14" d="M635.5,683.4c0,5.5-0.6,10.9-3.9,15.6c-5.3,7.5-14.6,7.7-20,0.3c-5.4-7.3-5.8-24.3-0.6-31.7
			c5.9-8.5,16.7-7.9,21.6,1.3C634.6,672.8,635.5,677.1,635.5,683.4z"/>
		<path class="st14" d="M436.9,682.7c0,6.4-0.7,11.7-4,16.4c-5.3,7.4-14.6,7.5-20,0.1c-5.3-7.2-5.7-23.8-0.7-31.3
			c5.7-8.6,16.6-8.3,21.7,0.7C436.3,673.2,437,678.3,436.9,682.7z"/>
		<path class="st15" d="M852.6,666.3c1.9,6.7,3.8,13.3,5.8,20.3c-4.3,0-8.2,0-12.7,0c1.8-6.5,3.5-13,5.3-19.4
			C851.3,666.7,851.6,665.7,852.6,666.3z"/>
		<path class="st16" d="M852.6,666.3c-0.6,0.3-1.2,0.6-1.7,0.9c-0.1-0.9-0.3-2.1,0.7-2.4C852.7,664.4,852.6,665.6,852.6,666.3z"/>
	</g>
</g>
</svg>
